<?xml version="1.0" encoding="UTF-8" standalone="no"?><svg width="512" height="512" viewBox="0 0 512 512" version="1.1" xmlns="http://www.w3.org/2000/svg" xmlns:xlink="http://www.w3.org/1999/xlink"><defs><linearGradient id="greenGradient" x1="0%" y1="0%" x2="100%" y2="100%"><stop offset="0%" style="stop-color:#4ade80;stop-opacity:1" /><stop offset="100%" style="stop-color:#166534;stop-opacity:1" /></linearGradient></defs><circle cx="256" cy="256" r="240" fill="url(#greenGradient)" /><path d="M256,120 C180,120 120,180 120,256 C120,332 180,392 256,392 C256,320 256,190 350,190 C350,160 310,120 256,120 Z" fill="#ffffff" fill-opacity="0.9" /><path d="M256,120 C332,120 392,180 392,256 C392,332 332,392 256,392 C256,320 256,190 162,190 C162,160 202,120 256,120 Z" fill="#ffffff" fill-opacity="0.5" transform="rotate(180 256 256)" /><path d="M230,150 L290,150 L290,180 L260,180 L260,220 L285,220 L285,250 L260,250 L260,320 L230,320 Z" fill="#166534" /></svg>
